<?xml version="1.0" encoding="utf-8"?>
<!-- Generator: Adobe Illustrator 22.1.0, SVG Export Plug-In . SVG Version: 6.00 Build 0)  -->
<svg version="1.1" id="Layer_1" xmlns="http://www.w3.org/2000/svg" xmlns:xlink="http://www.w3.org/1999/xlink" x="0px" y="0px"
	 viewBox="0 0 512 640" style="enable-background:new 0 0 512 640;" xml:space="preserve">
<style type="text/css">
	.st0{fill:#717171;}
</style>
<g>
	<g>
		<g>
			<path class="st0" d="M266,493H86c-3.9,0-7-3.1-7-7V126c0-2.5,1.4-4.9,3.6-6.1l180-100c2.2-1.2,4.8-1.2,6.9,0.1s3.4,3.6,3.4,6v460
				C273,489.9,269.9,493,266,493z M93,479h166V37.9L93,130.1V479z"/>
		</g>
		<g>
			<path class="st0" d="M386,213c-1.4,0-2.7-0.4-3.9-1.2l-80-53.3c-1.9-1.3-3.1-3.5-3.1-5.8V116c0-2.5,1.4-4.9,3.6-6.1
				c2.2-1.2,4.9-1.2,7.1,0.2l80,50c2,1.3,3.3,3.5,3.3,5.9v40c0,2.6-1.4,5-3.7,6.2C388.3,212.7,387.1,213,386,213z M313,148.9l66,44
				v-23l-66-41.2V148.9z"/>
		</g>
		<g>
			<path class="st0" d="M416,493H266c-3.9,0-7-3.1-7-7V126c0-2.6,1.4-5,3.7-6.2c2.3-1.2,5-1.1,7.2,0.3l150,100
				c1.9,1.3,3.1,3.5,3.1,5.8v260C423,489.9,419.9,493,416,493z M273,479h136V229.7l-136-90.7V479z"/>
		</g>
		<g>
			<path class="st0" d="M486,493H26c-3.9,0-7-3.1-7-7s3.1-7,7-7h460c3.9,0,7,3.1,7,7S489.9,493,486,493z"/>
		</g>
		<rect x="106" y="166" class="st0" width="20" height="40"/>
		<rect x="136" y="166" class="st0" width="20" height="40"/>
		<rect x="166" y="166" class="st0" width="20" height="40"/>
		<rect x="196" y="166" class="st0" width="20" height="40"/>
		<rect x="226" y="166" class="st0" width="20" height="40"/>
		<rect x="106" y="216" class="st0" width="20" height="40"/>
		<rect x="136" y="216" class="st0" width="20" height="40"/>
		<rect x="166" y="216" class="st0" width="20" height="40"/>
		<rect x="196" y="216" class="st0" width="20" height="40"/>
		<rect x="226" y="216" class="st0" width="20" height="40"/>
		<rect x="106" y="266" class="st0" width="20" height="40"/>
		<rect x="136" y="266" class="st0" width="20" height="40"/>
		<rect x="166" y="266" class="st0" width="20" height="40"/>
		<rect x="196" y="266" class="st0" width="20" height="40"/>
		<rect x="226" y="266" class="st0" width="20" height="40"/>
		<rect x="106" y="316" class="st0" width="20" height="40"/>
		<rect x="136" y="316" class="st0" width="20" height="40"/>
		<rect x="166" y="316" class="st0" width="20" height="40"/>
		<rect x="196" y="316" class="st0" width="20" height="40"/>
		<rect x="226" y="316" class="st0" width="20" height="40"/>
		<rect x="286" y="236" class="st0" width="30" height="20"/>
		<rect x="326" y="236" class="st0" width="30" height="20"/>
		<rect x="366" y="236" class="st0" width="30" height="20"/>
		<rect x="286" y="266" class="st0" width="30" height="20"/>
		<rect x="326" y="266" class="st0" width="30" height="20"/>
		<rect x="366" y="266" class="st0" width="30" height="20"/>
		<rect x="286" y="296" class="st0" width="30" height="20"/>
		<rect x="326" y="296" class="st0" width="30" height="20"/>
		<rect x="366" y="296" class="st0" width="30" height="20"/>
		<rect x="286" y="326" class="st0" width="30" height="20"/>
		<rect x="326" y="326" class="st0" width="30" height="20"/>
		<rect x="366" y="326" class="st0" width="30" height="20"/>
		<rect x="286" y="356" class="st0" width="30" height="20"/>
		<rect x="326" y="356" class="st0" width="30" height="20"/>
		<rect x="366" y="356" class="st0" width="30" height="20"/>
		<rect x="286" y="386" class="st0" width="30" height="20"/>
		<rect x="326" y="386" class="st0" width="30" height="20"/>
		<rect x="366" y="386" class="st0" width="30" height="20"/>
		<rect x="106" y="366" class="st0" width="20" height="40"/>
		<rect x="136" y="366" class="st0" width="20" height="40"/>
		<rect x="166" y="366" class="st0" width="20" height="40"/>
		<rect x="196" y="366" class="st0" width="20" height="40"/>
		<rect x="226" y="366" class="st0" width="20" height="40"/>
		<g>
			<path class="st0" d="M216,493h-80c-3.9,0-7-3.1-7-7v-60c0-3.9,3.1-7,7-7h80c3.9,0,7,3.1,7,7v60C223,489.9,219.9,493,216,493z
				 M143,479h66v-46h-66V479z"/>
		</g>
		<g>
			<path class="st0" d="M336,493h-40c-3.9,0-7-3.1-7-7v-50c0-3.9,3.1-7,7-7h40c3.9,0,7,3.1,7,7v50C343,489.9,339.9,493,336,493z
				 M303,479h26v-36h-26V479z"/>
		</g>
		<g>
			<path class="st0" d="M451,93h-50c-11.5,0-20.9-8.8-21.9-20H341c-12.1,0-22-9.9-22-22s9.9-22,22-22h70c11.5,0,20.9,8.8,21.9,20
				H451c12.1,0,22,9.9,22,22S463.1,93,451,93z M341,43c-4.4,0-8,3.6-8,8s3.6,8,8,8h45.9c2.3,0,4.4,1.1,5.7,3s1.6,4.2,0.9,6.4
				c-0.3,0.9-0.5,1.8-0.5,2.7c0,4.4,3.6,8,8,8h50c4.4,0,8-3.6,8-8s-3.6-8-8-8h-25.9c-2.3,0-4.4-1.1-5.7-3s-1.6-4.2-0.9-6.4
				c0.3-0.9,0.5-1.8,0.5-2.7c0-4.4-3.6-8-8-8H341z"/>
		</g>
	</g>
</g>
</svg>
