<?xml version="1.0" encoding="utf-8"?>
<!-- Generator: Adobe Illustrator 22.1.0, SVG Export Plug-In . SVG Version: 6.00 Build 0)  -->
<svg version="1.1"
	 id="Layer_1" xmlns:cc="http://creativecommons.org/ns#" xmlns:dc="http://purl.org/dc/elements/1.1/" xmlns:inkscape="http://www.inkscape.org/namespaces/inkscape" xmlns:rdf="http://www.w3.org/1999/02/22-rdf-syntax-ns#" xmlns:sodipodi="http://sodipodi.sourceforge.net/DTD/sodipodi-0.dtd" xmlns:svg="http://www.w3.org/2000/svg"
	 xmlns="http://www.w3.org/2000/svg" xmlns:xlink="http://www.w3.org/1999/xlink" x="0px" y="0px" viewBox="0 0 80 55.9"
	 style="enable-background:new 0 0 80 55.9;" xml:space="preserve">
<style type="text/css">
	.st0{fill:#FFFFFF;}
</style>
<g transform="translate(0,-952.36218)">
	<path class="st0" d="M6,952.4c-1.2,0-2.3,0.3-3.2,0.9L37,983.1c1.8,1.6,4,1.6,5.8,0l34.3-29.8c-0.9-0.6-2-0.9-3.2-0.9H6z
		 M0.3,956.4C0.1,957,0,957.7,0,958.3v44c0,3.3,2.7,6,6,6h68c3.3,0,6-2.7,6-6v-44c0-0.7-0.1-1.3-0.3-1.9l-34.2,29.7
		c-3.2,2.8-7.9,2.8-11.1,0L0.3,956.4z"/>
</g>
</svg>
