<?xml version="1.0" encoding="utf-8"?>
<!-- Generator: Adobe Illustrator 22.1.0, SVG Export Plug-In . SVG Version: 6.00 Build 0)  -->
<svg version="1.1" id="Layer_1" xmlns="http://www.w3.org/2000/svg" xmlns:xlink="http://www.w3.org/1999/xlink" x="0px" y="0px"
	 viewBox="0 0 100 125" style="enable-background:new 0 0 100 125;" xml:space="preserve">
<style type="text/css">
	.st0{fill:none;}
	.st1{fill:#717171;}
</style>
<g>
	<g>
		<path class="st0" d="M59.9,51.8c-2.9,2-3.9,4.7-4.2,5.8c1,0.8,3.6,1.6,6.7,2c0.3,0,0.5,0.1,0.7,0c7.4-0.1,11.2-6.8,12.4-9.7
			C68.8,48.7,63.5,49.3,59.9,51.8z"/>
		<path class="st0" d="M23.7,50c1.3,2.9,5,9.6,12.4,9.7c0.2,0,0.5,0,0.7,0c3.1-0.4,5.7-1.2,6.7-2c-0.3-1.2-1.3-3.9-4.2-5.8
			C35.8,49.3,30.5,48.7,23.7,50z"/>
		<path class="st0" d="M85.5,59.2c-0.1,0-0.2,0-0.3,0c-0.1,0-0.2,0-0.3,0c-0.1,0-0.3,0-0.4,0c-0.1,0-0.2,0-0.2,0
			c-0.2,0-0.3,0-0.5-0.1c0,0,0,0,0,0c0,0,0,0,0,0c-0.5-0.1-0.8-0.5-0.9-0.9c-0.1-0.5,0.1-1,0.5-1.2c0.1,0,5.8-4.3,8.3-10.6
			c-2.6,2-5.8,4.1-7.6,4.1c-0.5,0-1-0.3-1.1-0.8c-0.2-0.5,0-1,0.3-1.3c0.1-0.1,9.2-8.3,6.7-20.8c-2.1,4.5-6.4,11.8-11.6,12.4
			c-6.8,0.8-24.9,7.2-27.3,10.7c-0.2,0.3-0.6,0.5-1,0.5c0,0,0,0,0,0c-0.4,0-0.8-0.2-1-0.5c-2.4-3.5-20.5-10-27.3-10.7
			c-5.2-0.6-9.5-7.9-11.6-12.4C7.5,40,16.6,48.2,16.7,48.3c0.4,0.3,0.5,0.9,0.3,1.3c-0.2,0.5-0.6,0.8-1.1,0.8c-1.8,0-5-2.1-7.6-4.1
			c2.5,6.2,8.2,10.5,8.3,10.6c0.4,0.3,0.6,0.8,0.5,1.2c-0.1,0.5-0.5,0.8-0.9,0.9c-0.9,0.2-1.9,0.1-2.9-0.2
			C22,70.8,33.6,69,42.1,65.2c0.2-0.1,0.3-0.1,0.5-0.1c0.4,0,0.7,0.2,1,0.5l6.4,8.5l6.4-8.5c0.1-0.1,0.2-0.2,0.3-0.3c0,0,0,0,0,0
			c0.1-0.1,0.2-0.1,0.4-0.2c0,0,0,0,0,0c0.1,0,0.2,0,0.4,0c0,0,0.1,0,0.1,0c0.1,0,0.2,0,0.3,0.1C66.4,69,78,70.8,86.7,59
			c-0.2,0.1-0.5,0.1-0.7,0.2C85.8,59.2,85.6,59.2,85.5,59.2z M45.9,58.7C45.9,58.7,45.9,58.7,45.9,58.7
			C45.9,58.7,45.9,58.7,45.9,58.7c-0.9,1.3-3.2,2.2-5.5,2.8c-1.1,0.3-2.2,0.4-3.2,0.6c-0.4,0-0.7,0.1-1,0.1
			c-11.1-0.1-15.3-12.5-15.3-12.7c-0.1-0.3-0.1-0.7,0.1-1c0.2-0.3,0.5-0.5,0.8-0.6c8.1-1.8,14.5-1.2,19,1.9c3.5,2.4,4.7,5.6,5.2,7.1
			c0.1,0.5,0.2,0.8,0.2,0.9c0,0.2,0,0.3,0,0.5c0,0.1,0,0.1-0.1,0.2C46,58.5,46,58.6,45.9,58.7z M78.4,49.4c0,0.1-4.1,12.5-15.2,12.7
			h0c0,0,0,0,0,0h-0.1c0,0,0,0-0.1,0c-0.3,0-0.6,0-0.9-0.1c-3.2-0.4-7.4-1.4-8.7-3.3c-0.2-0.3-0.2-0.6-0.2-0.9
			c0.1-0.5,0.9-4.9,5.4-8c4.4-3.1,10.8-3.7,19-1.9c0,0,0,0,0,0c0.3,0.1,0.6,0.3,0.8,0.6C78.4,48.8,78.5,49.1,78.4,49.4z"/>
		<path class="st1" d="M46.1,57.8c0,0-0.1-0.4-0.2-0.9c-0.4-1.5-1.7-4.8-5.2-7.1c-4.5-3.1-10.8-3.7-19-1.9c-0.3,0.1-0.6,0.3-0.8,0.6
			c-0.2,0.3-0.2,0.6-0.1,1c0,0.1,4.2,12.5,15.3,12.7c0.3,0,0.6,0,1-0.1c1-0.1,2.1-0.3,3.2-0.6c2.3-0.5,4.6-1.4,5.5-2.7c0,0,0,0,0,0
			s0,0,0,0c0.1-0.1,0.1-0.2,0.1-0.3c0-0.1,0.1-0.1,0.1-0.2C46.2,58.1,46.2,58,46.1,57.8z M43.6,57.6c-1,0.8-3.6,1.6-6.7,2
			c-0.3,0-0.5,0-0.7,0C28.8,59.6,25,52.9,23.7,50c6.8-1.3,12-0.7,15.6,1.8C42.3,53.8,43.3,56.4,43.6,57.6z"/>
		<path class="st1" d="M89.3,55.1c-0.2,0.1-0.5,0.3-0.9,0.5c2.6-2.8,5.8-7.1,6.6-12.4c0.1-0.5-0.2-1-0.6-1.2c-0.4-0.2-1-0.2-1.4,0.1
			c-1,0.9-2.7,2.2-4.3,3.3c3-4.6,6.1-12.3,2.7-22c-0.2-0.5-0.6-0.8-1.2-0.8c-0.5,0-1,0.3-1.1,0.8c-1.4,3.7-6.2,13.5-11,14.1
			c-6.3,0.7-23.1,6.3-28,10.7c-5-4.4-21.7-10-28-10.7c-4.9-0.6-9.6-10.3-11-14.1c-0.2-0.5-0.7-0.8-1.2-0.8c-0.5,0-1,0.3-1.1,0.8
			c-3.4,9.7-0.3,17.4,2.7,22C9.7,44.4,8,43,7,42.2c-0.4-0.3-0.9-0.4-1.4-0.1c-0.4,0.2-0.7,0.7-0.6,1.2c0.8,5.2,4,9.6,6.6,12.4
			c-0.4-0.2-0.7-0.4-0.9-0.5c-0.5-0.3-1.1-0.2-1.5,0.1c-0.4,0.4-0.5,1-0.2,1.5c9.9,17.4,24.8,14.6,33.2,11.1l6.8,9
			c0.2,0.3,0.6,0.5,1,0.5c0.4,0,0.7-0.2,1-0.5l6.8-9c8.4,3.5,23.3,6.3,33.2-11.1c0.3-0.5,0.2-1.1-0.2-1.5
			C90.4,54.9,89.8,54.8,89.3,55.1z M57.9,65.2c-0.1,0-0.2-0.1-0.3-0.1c0,0-0.1,0-0.1,0c-0.1,0-0.3,0-0.4,0c0,0,0,0,0,0
			c-0.1,0-0.3,0.1-0.4,0.2c0,0,0,0,0,0c-0.1,0.1-0.2,0.2-0.3,0.3L50,74.1l-6.4-8.5c-0.2-0.3-0.6-0.5-1-0.5c-0.2,0-0.3,0-0.5,0.1
			C33.6,69,22,70.8,13.3,59c1,0.3,2,0.4,2.9,0.2c0.5-0.1,0.8-0.5,0.9-0.9c0.1-0.5-0.1-1-0.5-1.2c-0.1,0-5.8-4.3-8.3-10.6
			c2.6,2,5.8,4.1,7.6,4.1c0.5,0,1-0.3,1.1-0.8c0.2-0.5,0-1-0.3-1.3c-0.1-0.1-9.2-8.3-6.7-20.8c2.1,4.5,6.4,11.8,11.6,12.4
			c6.8,0.8,24.9,7.2,27.3,10.7c0.2,0.3,0.6,0.5,1,0.5c0,0,0,0,0,0c0.4,0,0.8-0.2,1-0.5c2.4-3.5,20.5-10,27.3-10.7
			c5.2-0.6,9.5-7.9,11.6-12.4c2.5,12.5-6.6,20.7-6.7,20.8c-0.4,0.3-0.5,0.9-0.3,1.3c0.2,0.5,0.6,0.8,1.1,0.8c1.8,0,5-2.1,7.6-4.1
			c-2.5,6.2-8.2,10.5-8.3,10.6c-0.4,0.3-0.6,0.8-0.5,1.2c0.1,0.5,0.5,0.8,0.9,0.9c0,0,0,0,0,0s0,0,0,0c0.2,0,0.3,0,0.5,0.1
			c0.1,0,0.2,0,0.2,0c0.1,0,0.3,0,0.4,0c0.1,0,0.2,0,0.3,0c0.1,0,0.2,0,0.3,0c0.2,0,0.3,0,0.5-0.1c0.2,0,0.5-0.1,0.7-0.2
			C78,70.8,66.4,69,57.9,65.2z"/>
		<path class="st1" d="M77.5,47.9C77.5,47.9,77.5,47.9,77.5,47.9c-8.2-1.8-14.5-1.2-19,1.9c-4.5,3.1-5.3,7.5-5.4,8
			c0,0.3,0,0.6,0.2,0.9c1.4,2,5.5,2.9,8.7,3.3c0.3,0,0.6,0.1,0.9,0.1c0,0,0,0,0.1,0h0.1c0,0,0,0,0,0h0c11.2-0.1,15.2-12.5,15.2-12.7
			c0.1-0.3,0.1-0.7-0.1-1C78.1,48.2,77.8,47.9,77.5,47.9z M63.1,59.6c-0.2,0-0.4,0-0.7,0c-3.1-0.4-5.7-1.2-6.7-2
			c0.3-1.1,1.3-3.9,4.2-5.8c3.6-2.5,8.9-3.1,15.7-1.8C74.2,52.9,70.5,59.6,63.1,59.6z"/>
	</g>
</g>
</svg>
