<?xml version="1.0" encoding="utf-8"?>
<!-- Generator: Adobe Illustrator 22.1.0, SVG Export Plug-In . SVG Version: 6.00 Build 0)  -->
<svg version="1.1" id="Layer_1" xmlns="http://www.w3.org/2000/svg" xmlns:xlink="http://www.w3.org/1999/xlink" x="0px" y="0px"
	 viewBox="0 0 90 112.5" style="enable-background:new 0 0 90 112.5;" xml:space="preserve">
<style type="text/css">
	.st0{fill:none;stroke:#717171;stroke-width:2;stroke-linecap:round;stroke-linejoin:round;stroke-miterlimit:10;}
</style>
<g>
	<polyline class="st0" points="58.5,50.9 78.9,40.1 69.2,34.4 	"/>
	<path class="st0" d="M33.9,59.4l3.2,1.8c0.6,0.4,1.4,0.4,2.1,0l12-6.4"/>
	<path class="st0" d="M51.2,59.4L70.8,49l-4.1-2.4"/>
	<polyline class="st0" points="58.5,46.3 70.8,39.8 65.9,37 	"/>
	<path class="st0" d="M19.6,45.8l-8.5,4.5L29,60.9c0.6,0.4,1.4,0.4,2.1,0l20.1-10.7"/>
	<path class="st0" d="M51.2,59.4V45.8L32.4,34.4"/>
	<path class="st0" d="M39.6,30.6l18.9,11.1v13.8"/>
	<g>
		<path class="st0" d="M58.4,41.7c7-3.7,13-8.7,16.9-13.6L56.5,16.9c-3.8,4.9-9.8,10-16.9,13.7"/>
	</g>
	<path class="st0" d="M58.4,41.7c7-3.7,13-8.7,16.9-13.6L56.5,16.9c-3.8,4.9-9.8,10-16.9,13.7L15.5,43.4L33.4,54
		c0.6,0.4,1.4,0.4,2.1,0.1l15.7-8.2"/>
	<path class="st0" d="M21,56.2c-2.1,1.9-3.9,3.8-5.4,5.8l18.7,11.1c3.8-4.9,9.8-10,16.9-13.7"/>
</g>
</svg>
