<svg xmlns="http://www.w3.org/2000/svg" xmlns:xlink="http://www.w3.org/1999/xlink" version="1.1" x="0px" y="0px" viewBox="0 0 512 640" style="enable-background:new 0 0 512 512;" xml:space="preserve"><g><g><g><path d="M266,493H86c-3.866,0-7-3.134-7-7V126c0-2.542,1.378-4.885,3.601-6.119l180-100c2.168-1.206,4.812-1.172,6.949,0.086     S273,23.52,273,26v460C273,489.866,269.866,493,266,493z M93,479h166V37.896L93,130.119V479z"/></g><g><path d="M386,213c-1.357,0-2.712-0.395-3.883-1.176l-80-53.333c-1.947-1.298-3.117-3.484-3.117-5.824V116     c0-2.544,1.381-4.889,3.606-6.123c2.227-1.233,4.945-1.163,7.104,0.187l80,50c2.047,1.279,3.29,3.522,3.29,5.936v40     c0,2.582-1.421,4.954-3.697,6.172C388.269,212.726,387.133,213,386,213z M313,148.921l66,44V169.88l-66-41.25V148.921z"/></g><g><path d="M416,493H266c-3.866,0-7-3.134-7-7V126c0-2.582,1.421-4.954,3.697-6.172c2.275-1.219,5.039-1.084,7.186,0.348l150,100     C421.83,221.474,423,223.66,423,226v260C423,489.866,419.866,493,416,493z M273,479h136V229.746L273,139.08V479z"/></g><g><path d="M486,493H26c-3.866,0-7-3.134-7-7s3.134-7,7-7h460c3.866,0,7,3.134,7,7S489.866,493,486,493z"/></g><rect x="106" y="166" width="20" height="40"/><rect x="136" y="166" width="20" height="40"/><rect x="166" y="166" width="20" height="40"/><rect x="196" y="166" width="20" height="40"/><rect x="226" y="166" width="20" height="40"/><rect x="106" y="216" width="20" height="40"/><rect x="136" y="216" width="20" height="40"/><rect x="166" y="216" width="20" height="40"/><rect x="196" y="216" width="20" height="40"/><rect x="226" y="216" width="20" height="40"/><rect x="106" y="266" width="20" height="40"/><rect x="136" y="266" width="20" height="40"/><rect x="166" y="266" width="20" height="40"/><rect x="196" y="266" width="20" height="40"/><rect x="226" y="266" width="20" height="40"/><rect x="106" y="316" width="20" height="40"/><rect x="136" y="316" width="20" height="40"/><rect x="166" y="316" width="20" height="40"/><rect x="196" y="316" width="20" height="40"/><rect x="226" y="316" width="20" height="40"/><rect x="286" y="236" width="30" height="20"/><rect x="326" y="236" width="30" height="20"/><rect x="366" y="236" width="30" height="20"/><rect x="286" y="266" width="30" height="20"/><rect x="326" y="266" width="30" height="20"/><rect x="366" y="266" width="30" height="20"/><rect x="286" y="296" width="30" height="20"/><rect x="326" y="296" width="30" height="20"/><rect x="366" y="296" width="30" height="20"/><rect x="286" y="326" width="30" height="20"/><rect x="326" y="326" width="30" height="20"/><rect x="366" y="326" width="30" height="20"/><rect x="286" y="356" width="30" height="20"/><rect x="326" y="356" width="30" height="20"/><rect x="366" y="356" width="30" height="20"/><rect x="286" y="386" width="30" height="20"/><rect x="326" y="386" width="30" height="20"/><rect x="366" y="386" width="30" height="20"/><rect x="106" y="366" width="20" height="40"/><rect x="136" y="366" width="20" height="40"/><rect x="166" y="366" width="20" height="40"/><rect x="196" y="366" width="20" height="40"/><rect x="226" y="366" width="20" height="40"/><g><path d="M216,493h-80c-3.866,0-7-3.134-7-7v-60c0-3.866,3.134-7,7-7h80c3.866,0,7,3.134,7,7v60C223,489.866,219.866,493,216,493z      M143,479h66v-46h-66V479z"/></g><g><path d="M336,493h-40c-3.866,0-7-3.134-7-7v-50c0-3.866,3.134-7,7-7h40c3.866,0,7,3.134,7,7v50C343,489.866,339.866,493,336,493z      M303,479h26v-36h-26V479z"/></g><g><path d="M451,93h-50c-11.457,0-20.896-8.802-21.91-20H341c-12.131,0-22-9.869-22-22s9.869-22,22-22h70     c11.457,0,20.896,8.802,21.91,20H451c12.131,0,22,9.869,22,22S463.131,93,451,93z M341,43c-4.411,0-8,3.589-8,8s3.589,8,8,8     h45.872c2.273,0,4.405,1.104,5.717,2.96s1.641,4.234,0.882,6.377C393.158,69.218,393,70.114,393,71c0,4.411,3.589,8,8,8h50     c4.411,0,8-3.589,8-8s-3.589-8-8-8h-25.872c-2.273,0-4.405-1.104-5.717-2.96s-1.641-4.234-0.882-6.377     C418.842,52.782,419,51.886,419,51c0-4.411-3.589-8-8-8H341z"/></g></g></g><text x="0" y="527" fill="#000000" font-size="5px" font-weight="bold" font-family="'Helvetica Neue', Helvetica, Arial-Unicode, Arial, Sans-serif">Created by Flatart</text><text x="0" y="532" fill="#000000" font-size="5px" font-weight="bold" font-family="'Helvetica Neue', Helvetica, Arial-Unicode, Arial, Sans-serif">from the Noun Project</text></svg>