<?xml version="1.0" encoding="utf-8"?>
<!-- Generator: Adobe Illustrator 22.1.0, SVG Export Plug-In . SVG Version: 6.00 Build 0)  -->
<svg version="1.1"
	 id="Layer_1" xmlns:cc="http://creativecommons.org/ns#" xmlns:dc="http://purl.org/dc/elements/1.1/" xmlns:inkscape="http://www.inkscape.org/namespaces/inkscape" xmlns:rdf="http://www.w3.org/1999/02/22-rdf-syntax-ns#" xmlns:sodipodi="http://sodipodi.sourceforge.net/DTD/sodipodi-0.dtd" xmlns:svg="http://www.w3.org/2000/svg"
	 xmlns="http://www.w3.org/2000/svg" xmlns:xlink="http://www.w3.org/1999/xlink" x="0px" y="0px" viewBox="0 0 100 125"
	 style="enable-background:new 0 0 100 125;" xml:space="preserve">
<g transform="translate(0,-952.36218)">
	<path d="M16,974.4c-1.2,0-2.3,0.3-3.2,0.9l34.2,29.8c1.8,1.6,4,1.6,5.8,0l34.3-29.8c-0.9-0.6-2-0.9-3.2-0.9H16z M10.3,978.4
		c-0.2,0.6-0.3,1.3-0.3,1.9v44c0,3.3,2.7,6,6,6h68c3.3,0,6-2.7,6-6v-44c0-0.7-0.1-1.3-0.3-1.9l-34.2,29.7c-3.2,2.8-7.9,2.8-11.1,0
		L10.3,978.4z"/>
</g>
</svg>
