<?xml version="1.0" encoding="utf-8"?>
<!-- Generator: Adobe Illustrator 22.1.0, SVG Export Plug-In . SVG Version: 6.00 Build 0)  -->
<svg version="1.1" id="Layer_1" xmlns="http://www.w3.org/2000/svg" xmlns:xlink="http://www.w3.org/1999/xlink" x="0px" y="0px"
	 viewBox="0 0 100 125" style="enable-background:new 0 0 100 125;" xml:space="preserve">
<style type="text/css">
	.st0{fill:#717171;}
</style>
<g>
	<path class="st0" d="M27.8,51.1c-2.9,0-5.3,2.4-5.3,5.3c0,2.9,2.4,5.3,5.3,5.3c2.9,0,5.3-2.4,5.3-5.3
		C33.1,53.5,30.7,51.1,27.8,51.1z M27.8,58.8c-1.3,0-2.4-1.1-2.4-2.4c0-1.3,1.1-2.4,2.4-2.4c1.3,0,2.4,1.1,2.4,2.4
		C30.2,57.8,29.1,58.8,27.8,58.8z"/>
	<path class="st0" d="M72.2,52.1c-2.7,0-4.9,2.2-4.9,4.9s2.2,4.9,4.9,4.9s4.9-2.2,4.9-4.9S74.9,52.1,72.2,52.1z M72.2,58.8
		c-1,0-1.9-0.8-1.9-1.9c0-1,0.8-1.9,1.9-1.9c1,0,1.9,0.8,1.9,1.9C74.1,58,73.2,58.8,72.2,58.8z"/>
	<rect x="34.6" y="58.1" class="st0" width="30.5" height="3"/>
	<polygon class="st0" points="85.2,49.3 83.8,47.9 81.1,46.6 62.9,44.9 53.6,38.2 45.7,38.2 35.7,39.9 24.1,45.3 21.4,44.4 
		13.9,44.4 13.9,46.8 16.2,50.2 13.9,51.8 13.9,57.1 15.9,59.2 18,57.1 16.8,55.9 16.8,53.4 20.3,51.1 17.8,47.3 20.9,47.3 
		24.3,48.4 36.6,42.7 46,41.2 52.6,41.2 61.8,47.8 80.3,49.5 82,50.4 82.6,50.9 83.1,52.7 82.9,54.7 81.2,57.3 83.7,58.9 85.8,55.7 
		86.1,52.5 	"/>
</g>
</svg>
