<?xml version="1.0" encoding="utf-8"?>
<!-- Generator: Adobe Illustrator 22.1.0, SVG Export Plug-In . SVG Version: 6.00 Build 0)  -->
<svg version="1.1" id="Layer_1" xmlns="http://www.w3.org/2000/svg" xmlns:xlink="http://www.w3.org/1999/xlink" x="0px" y="0px"
	 viewBox="0 0 50 62.5" style="enable-background:new 0 0 50 62.5;" xml:space="preserve">
<style type="text/css">
	.st0{fill:#717171;}
</style>
<path class="st0" d="M39.8,22.3c-0.3,0-0.5,0.2-0.5,0.5v0.5h-1.7c-0.2-1.8-0.9-3.5-1.8-5l0,0L32.3,8V1.3c0-0.3-0.2-0.5-0.5-0.5
	s-0.5,0.2-0.5,0.5V14c-1.9-1.1-4-1.7-6.3-1.7c-2.3,0-4.4,0.6-6.3,1.7V1.3c0-0.3-0.2-0.5-0.5-0.5s-0.5,0.2-0.5,0.5V8l-3.5,10.3
	c-1.2,1.9-1.9,4.2-1.9,6.6s0.7,4.7,1.9,6.6L17.7,42v6.7c0,0.3,0.2,0.5,0.5,0.5s0.5-0.2,0.5-0.5V36c1.9,1.1,4,1.7,6.3,1.7
	c2.3,0,4.4-0.6,6.3-1.7v12.7c0,0.3,0.2,0.5,0.5,0.5s0.5-0.2,0.5-0.5V42l3.5-10.3l0,0c0.9-1.5,1.5-3.2,1.8-5h1.7v0.5
	c0,0.3,0.2,0.5,0.5,0.5s0.5-0.2,0.5-0.5v-4.4C40.2,22.5,40,22.3,39.8,22.3z M32.3,11.1l1.6,4.9c-0.5-0.5-1.1-1-1.6-1.4V11.1z
	 M17.7,14.6c-0.6,0.4-1.1,0.9-1.6,1.4l1.6-4.9V14.6z M17.7,38.9L16.1,34c0.5,0.5,1.1,1,1.6,1.4V38.9z M13.3,25
	c0-6.4,5.2-11.7,11.7-11.7S36.7,18.6,36.7,25S31.4,36.7,25,36.7S13.3,31.4,13.3,25z M32.3,35.4c0.6-0.4,1.1-0.9,1.6-1.4l-1.6,4.9
	V35.4z M37.7,25.7c0-0.2,0-0.4,0-0.7s0-0.4,0-0.7h1.6v1.3L37.7,25.7L37.7,25.7z"/>
<path class="st0" d="M25,16.9c0.3,0,0.5-0.2,0.5-0.5v-1.8c0-0.3-0.2-0.5-0.5-0.5s-0.5,0.2-0.5,0.5v1.8C24.5,16.7,24.7,16.9,25,16.9z
	"/>
<path class="st0" d="M25,33.1c-0.3,0-0.5,0.2-0.5,0.5v1.8c0,0.3,0.2,0.5,0.5,0.5s0.5-0.2,0.5-0.5v-1.8C25.5,33.3,25.3,33.1,25,33.1z
	"/>
<path class="st0" d="M16.4,24.5h-1.8c-0.3,0-0.5,0.2-0.5,0.5s0.2,0.5,0.5,0.5h1.8c0.3,0,0.5-0.2,0.5-0.5S16.7,24.5,16.4,24.5z"/>
<path class="st0" d="M35.4,25.5c0.3,0,0.5-0.2,0.5-0.5s-0.2-0.5-0.5-0.5h-1.8c-0.3,0-0.5,0.2-0.5,0.5s0.2,0.5,0.5,0.5H35.4z"/>
<path class="st0" d="M26.5,25.8c0.1-0.2,0.2-0.5,0.2-0.8c0-0.8-0.5-1.5-1.2-1.7v-4.8c0-0.3-0.2-0.5-0.5-0.5s-0.5,0.2-0.5,0.5v4.8
	c-0.7,0.2-1.2,0.9-1.2,1.7c0,1,0.8,1.8,1.8,1.8c0.3,0,0.6-0.1,0.8-0.2l2.4,2.2c0.1,0.1,0.2,0.1,0.3,0.1c0.1,0,0.3-0.1,0.4-0.2
	c0.2-0.2,0.2-0.5,0-0.7L26.5,25.8z M24.2,25c0-0.4,0.3-0.8,0.8-0.8s0.8,0.3,0.8,0.8s-0.3,0.8-0.8,0.8S24.2,25.4,24.2,25z"/>
</svg>
