<svg xmlns="http://www.w3.org/2000/svg" xmlns:xlink="http://www.w3.org/1999/xlink" version="1.1" x="0px" y="0px" viewBox="7.5 7.5 50 62.5" enable-background="new 7.5 7.5 50 50" xml:space="preserve"><path d="M47.25,29.792c-0.276,0-0.5,0.224-0.5,0.5v0.542h-1.685c-0.238-1.802-0.855-3.482-1.77-4.965c0,0,0,0,0,0l-3.504-10.347  V8.833c0-0.276-0.224-0.5-0.5-0.5s-0.5,0.224-0.5,0.5v12.665c-1.856-1.066-4.002-1.685-6.292-1.685  c-2.291,0-4.435,0.619-6.292,1.685V8.833c0-0.276-0.224-0.5-0.5-0.5s-0.5,0.224-0.5,0.5v6.691l-3.503,10.343  c-1.192,1.933-1.893,4.2-1.893,6.633c0,2.433,0.7,4.7,1.893,6.633l3.503,10.343v6.691c0,0.276,0.224,0.5,0.5,0.5s0.5-0.224,0.5-0.5  V43.502c1.857,1.066,4.001,1.686,6.292,1.686c2.29,0,4.436-0.619,6.292-1.686v12.665c0,0.276,0.224,0.5,0.5,0.5s0.5-0.224,0.5-0.5  v-6.688l3.504-10.347l0,0c0.914-1.483,1.531-3.163,1.77-4.965h1.685v0.541c0,0.276,0.224,0.5,0.5,0.5s0.5-0.224,0.5-0.5v-4.416  C47.75,30.016,47.526,29.792,47.25,29.792z M39.792,18.639l1.649,4.87c-0.508-0.505-1.063-0.961-1.649-1.375V18.639z M25.208,22.134  c-0.586,0.414-1.141,0.869-1.648,1.374l1.648-4.867V22.134z M25.208,46.358l-1.648-4.866c0.508,0.504,1.062,0.96,1.648,1.374V46.358  z M20.813,32.5c0-6.444,5.243-11.688,11.688-11.688S44.188,26.056,44.188,32.5S38.944,44.188,32.5,44.188S20.813,38.944,20.813,32.5  z M39.792,42.866c0.587-0.414,1.142-0.87,1.649-1.375l-1.649,4.87V42.866z M45.153,33.167c0.012-0.222,0.034-0.442,0.034-0.667  s-0.022-0.444-0.034-0.667h1.597v1.333H45.153z"/><path d="M32.5,24.435c0.276,0,0.5-0.224,0.5-0.5v-1.786c0-0.276-0.224-0.5-0.5-0.5s-0.5,0.224-0.5,0.5v1.786  C32,24.211,32.224,24.435,32.5,24.435z"/><path d="M32.5,40.565c-0.276,0-0.5,0.224-0.5,0.5v1.785c0,0.276,0.224,0.5,0.5,0.5s0.5-0.224,0.5-0.5v-1.785  C33,40.789,32.776,40.565,32.5,40.565z"/><path d="M23.936,32h-1.786c-0.276,0-0.5,0.224-0.5,0.5s0.224,0.5,0.5,0.5h1.786c0.276,0,0.5-0.223,0.5-0.5S24.212,32,23.936,32z"/><path d="M42.851,33c0.276,0,0.5-0.224,0.5-0.5s-0.224-0.5-0.5-0.5h-1.785c-0.276,0-0.5,0.224-0.5,0.5s0.224,0.5,0.5,0.5H42.851z"/><path d="M34.035,33.321c0.133-0.246,0.215-0.523,0.215-0.821c0-0.79-0.529-1.452-1.25-1.668v-4.803c0-0.276-0.224-0.5-0.5-0.5  s-0.5,0.224-0.5,0.5v4.803c-0.72,0.217-1.25,0.878-1.25,1.668c0,0.965,0.785,1.75,1.75,1.75c0.302,0,0.581-0.084,0.829-0.219  l2.421,2.175c0.096,0.086,0.215,0.128,0.334,0.128c0.137,0,0.273-0.056,0.372-0.166c0.185-0.205,0.168-0.521-0.038-0.706  L34.035,33.321z M31.75,32.5c0-0.414,0.336-0.75,0.75-0.75s0.75,0.336,0.75,0.75s-0.336,0.75-0.75,0.75S31.75,32.914,31.75,32.5z"/><text x="7.5" y="72.5" fill="#000000" font-size="5px" font-weight="bold" font-family="'Helvetica Neue', Helvetica, Arial-Unicode, Arial, Sans-serif">Created by Noura Mbarki</text><text x="7.5" y="77.5" fill="#000000" font-size="5px" font-weight="bold" font-family="'Helvetica Neue', Helvetica, Arial-Unicode, Arial, Sans-serif">from the Noun Project</text></svg>