<svg xmlns="http://www.w3.org/2000/svg" xmlns:xlink="http://www.w3.org/1999/xlink" version="1.1" x="0px" y="0px" viewBox="0 0 100 125" enable-background="new 0 0 100 100" xml:space="preserve"><g><g><path fill="none" d="M59.88,51.778c-2.873,1.985-3.899,4.712-4.215,5.842c1.016,0.787,3.596,1.557,6.725,1.978    c0.288,0.037,0.51,0.055,0.7,0.049c7.403-0.093,11.152-6.75,12.447-9.689C68.762,48.667,63.499,49.277,59.88,51.778z"/><path fill="none" d="M23.732,49.958c1.294,2.939,5.042,9.596,12.436,9.689c0.219,0,0.452-0.013,0.712-0.049    c3.131-0.422,5.712-1.191,6.727-1.98c-0.325-1.18-1.343-3.857-4.225-5.845C35.763,49.277,30.502,48.668,23.732,49.958z"/><path fill="none" d="M85.487,59.192c-0.094,0.011-0.188,0.029-0.281,0.036c-0.107,0.008-0.211,0.001-0.317,0.003    c-0.135,0.003-0.272,0.012-0.405,0.004c-0.077-0.004-0.151-0.023-0.228-0.031c-0.157-0.017-0.314-0.029-0.466-0.063    c-0.001,0-0.001,0-0.002-0.001c-0.001,0-0.001,0-0.002,0c-0.466-0.101-0.833-0.472-0.93-0.944    c-0.096-0.474,0.094-0.958,0.483-1.238c0.059-0.043,5.83-4.338,8.288-10.562c-2.613,1.988-5.777,4.068-7.577,4.068    c-0.506,0-0.966-0.318-1.143-0.793c-0.179-0.476-0.039-1.018,0.345-1.35c0.094-0.083,9.2-8.291,6.685-20.778    c-2.148,4.511-6.4,11.812-11.637,12.416c-6.789,0.784-24.864,7.203-27.297,10.745c-0.228,0.329-0.603,0.523-1.006,0.523    c-0.001,0-0.002,0-0.003,0c-0.404-0.001-0.779-0.197-1.002-0.524c-2.434-3.54-20.509-9.959-27.297-10.744    c-5.237-0.604-9.49-7.906-11.637-12.416c-2.525,12.503,6.59,20.694,6.689,20.781c0.38,0.329,0.52,0.871,0.341,1.347    c-0.177,0.475-0.636,0.793-1.143,0.793c-1.799,0-4.964-2.08-7.578-4.069c2.459,6.224,8.231,10.52,8.298,10.57    c0.383,0.277,0.57,0.761,0.475,1.229c-0.103,0.479-0.47,0.845-0.935,0.947c-0.902,0.201-1.906,0.091-2.887-0.177    c8.703,11.851,20.311,10.069,28.773,6.264c0.153-0.07,0.328-0.107,0.501-0.107c0.38,0,0.744,0.182,0.974,0.485l6.415,8.476    l6.441-8.467c0.071-0.111,0.166-0.207,0.276-0.283c0.001-0.001,0.003-0.001,0.004-0.002c0.109-0.075,0.233-0.133,0.366-0.168    c0.014-0.004,0.029-0.001,0.044-0.004c0.122-0.028,0.247-0.045,0.375-0.035c0.031,0.002,0.06,0.018,0.091,0.023    c0.111,0.016,0.222,0.035,0.328,0.083c8.46,3.804,20.069,5.588,28.77-6.265c-0.245,0.067-0.491,0.124-0.737,0.169    C85.789,59.161,85.638,59.174,85.487,59.192z M45.938,58.683c-0.001,0.001-0.002,0.002-0.003,0.004c0,0.001,0,0.001,0,0.001    c-0.933,1.341-3.162,2.2-5.511,2.749c-1.086,0.254-2.197,0.442-3.217,0.579c-0.351,0.048-0.675,0.071-0.991,0.071    c-11.145-0.138-15.27-12.531-15.311-12.656c-0.102-0.331-0.064-0.683,0.1-0.974c0.18-0.305,0.463-0.513,0.788-0.589    c8.149-1.811,14.533-1.17,18.983,1.903c3.467,2.396,4.739,5.609,5.169,7.149c0.144,0.513,0.194,0.841,0.201,0.89    c0.023,0.155,0.015,0.311-0.021,0.459c-0.013,0.055-0.049,0.103-0.07,0.156C46.02,58.513,45.994,58.604,45.938,58.683z     M78.364,49.431c-0.036,0.117-4.065,12.516-15.231,12.655h-0.002c-0.003,0-0.007,0-0.01,0h-0.066    c-0.019,0-0.042-0.004-0.061-0.004c-0.33-0.005-0.623-0.025-0.931-0.066c-3.228-0.436-7.365-1.367-8.735-3.336    c-0.177-0.256-0.249-0.564-0.206-0.869c0.076-0.5,0.853-4.917,5.372-8.039c4.445-3.074,10.831-3.714,18.974-1.906    c0.003,0.001,0.006,0.002,0.009,0.002c0.326,0.076,0.61,0.284,0.78,0.572C78.433,48.752,78.469,49.109,78.364,49.431z"/><path d="M46.146,57.81c-0.007-0.049-0.057-0.377-0.201-0.89c-0.431-1.54-1.702-4.753-5.169-7.149    c-4.45-3.073-10.834-3.714-18.983-1.903c-0.325,0.076-0.609,0.284-0.788,0.589c-0.164,0.291-0.203,0.643-0.1,0.974    c0.041,0.125,4.166,12.519,15.311,12.656c0.315,0,0.64-0.023,0.991-0.071c1.02-0.138,2.131-0.325,3.217-0.579    c2.349-0.549,4.578-1.408,5.511-2.748c0,0,0-0.001,0.001-0.002c0.001-0.001,0.002-0.002,0.003-0.004    c0.055-0.079,0.082-0.17,0.117-0.258c0.021-0.053,0.057-0.1,0.07-0.156C46.161,58.12,46.169,57.965,46.146,57.81z M43.607,57.618    c-1.016,0.789-3.597,1.558-6.727,1.98c-0.26,0.035-0.493,0.049-0.712,0.049c-7.393-0.093-11.141-6.75-12.436-9.689    c6.77-1.29,12.031-0.681,15.649,1.815C42.264,53.761,43.282,56.438,43.607,57.618z"/><path d="M89.289,55.127c-0.232,0.144-0.537,0.319-0.887,0.502c2.625-2.785,5.816-7.128,6.585-12.353    c0.072-0.499-0.176-0.997-0.628-1.248c-0.446-0.24-0.997-0.178-1.373,0.146c-1.023,0.873-2.657,2.187-4.293,3.349    c2.997-4.602,6.058-12.298,2.653-22.026c-0.168-0.48-0.622-0.808-1.152-0.818c-0.5,0-0.956,0.313-1.139,0.783    c-1.43,3.726-6.201,13.517-11.033,14.075c-6.341,0.731-23.064,6.298-28.024,10.685c-4.96-4.388-21.683-9.955-28.023-10.685    c-4.864-0.562-9.613-10.348-11.033-14.075c-0.193-0.503-0.693-0.81-1.161-0.783c-0.508,0.01-0.962,0.338-1.13,0.818    c-3.404,9.727-0.343,17.424,2.653,22.027c-1.636-1.163-3.268-2.475-4.289-3.346c-0.383-0.332-0.94-0.39-1.387-0.144    c-0.441,0.245-0.689,0.743-0.616,1.245c0.768,5.229,3.964,9.573,6.591,12.357c-0.35-0.182-0.654-0.359-0.887-0.504    c-0.473-0.304-1.09-0.243-1.498,0.143c-0.406,0.387-0.497,0.997-0.22,1.488c9.936,17.43,24.777,14.624,33.201,11.081l6.806,8.991    c0.229,0.306,0.593,0.488,0.975,0.488c0.378,0,0.74-0.18,0.971-0.481l6.845-8.998c8.425,3.545,23.268,6.349,33.201-11.077    c0.281-0.489,0.192-1.102-0.221-1.495C90.371,54.889,89.76,54.831,89.289,55.127z M57.907,65.23    c-0.106-0.048-0.217-0.067-0.328-0.083c-0.031-0.005-0.06-0.021-0.091-0.023c-0.128-0.009-0.254,0.007-0.375,0.035    c-0.014,0.003-0.03,0.001-0.044,0.004c-0.133,0.036-0.257,0.093-0.366,0.168c-0.001,0.001-0.003,0.001-0.004,0.002    c-0.11,0.077-0.205,0.172-0.276,0.283l-6.441,8.467l-6.415-8.476c-0.229-0.304-0.593-0.485-0.974-0.485    c-0.173,0-0.348,0.037-0.501,0.107c-8.461,3.805-20.07,5.587-28.773-6.264c0.981,0.267,1.985,0.377,2.887,0.177    c0.465-0.101,0.832-0.468,0.935-0.947c0.096-0.468-0.092-0.952-0.475-1.229c-0.067-0.05-5.839-4.346-8.298-10.57    c2.614,1.989,5.779,4.069,7.578,4.069c0.506,0,0.966-0.318,1.143-0.793c0.179-0.476,0.039-1.018-0.341-1.347    c-0.099-0.087-9.214-8.278-6.689-20.781c2.147,4.51,6.4,11.813,11.637,12.416c6.788,0.784,24.863,7.203,27.297,10.744    c0.224,0.327,0.598,0.523,1.002,0.524c0.001,0,0.002,0,0.003,0c0.403,0,0.778-0.194,1.006-0.523    c2.433-3.541,20.508-9.96,27.297-10.745c5.237-0.604,9.489-7.904,11.637-12.416c2.514,12.486-6.592,20.694-6.685,20.778    c-0.384,0.331-0.523,0.874-0.345,1.35c0.177,0.475,0.636,0.793,1.143,0.793c1.8,0,4.964-2.08,7.577-4.068    c-2.458,6.224-8.229,10.519-8.288,10.562c-0.39,0.28-0.58,0.764-0.483,1.238c0.097,0.472,0.464,0.843,0.93,0.944    c0.001,0,0.001,0,0.002,0c0.001,0,0.001,0,0.002,0.001c0.152,0.033,0.31,0.046,0.466,0.063c0.076,0.008,0.15,0.026,0.228,0.031    c0.133,0.008,0.27-0.001,0.405-0.004c0.106-0.002,0.21,0.004,0.317-0.003c0.093-0.007,0.188-0.025,0.281-0.036    c0.151-0.018,0.302-0.031,0.454-0.059c0.246-0.045,0.492-0.102,0.737-0.169C77.976,70.818,66.368,69.034,57.907,65.23z"/><path d="M77.476,47.868c-0.003,0-0.006-0.001-0.009-0.002c-8.143-1.808-14.529-1.168-18.974,1.906    c-4.519,3.122-5.296,7.539-5.372,8.039c-0.043,0.306,0.03,0.613,0.206,0.869c1.37,1.969,5.507,2.9,8.735,3.336    c0.308,0.042,0.601,0.061,0.931,0.066c0.019,0,0.042,0.004,0.061,0.004h0.066c0.003,0,0.007,0,0.01,0h0.002    c11.166-0.139,15.195-12.538,15.231-12.655c0.105-0.323,0.069-0.679-0.108-0.992C78.086,48.151,77.802,47.943,77.476,47.868z     M63.09,59.647c-0.19,0.007-0.413-0.011-0.7-0.049c-3.129-0.421-5.709-1.191-6.725-1.978c0.316-1.13,1.342-3.857,4.215-5.842    c3.619-2.501,8.882-3.111,15.657-1.82C74.242,52.896,70.493,59.554,63.09,59.647z"/></g></g><text x="0" y="115" fill="#000000" font-size="5px" font-weight="bold" font-family="'Helvetica Neue', Helvetica, Arial-Unicode, Arial, Sans-serif">Created by Alena Artemova</text><text x="0" y="120" fill="#000000" font-size="5px" font-weight="bold" font-family="'Helvetica Neue', Helvetica, Arial-Unicode, Arial, Sans-serif">from the Noun Project</text></svg>