<svg xmlns="http://www.w3.org/2000/svg" xmlns:xlink="http://www.w3.org/1999/xlink" version="1.1" x="0px" y="0px" viewBox="0 0 100 125" enable-background="new 0 0 100 100" xml:space="preserve"><g><path fill="#000000" d="M27.788,51.117c-2.948,0-5.347,2.398-5.347,5.346c0,2.949,2.398,5.348,5.347,5.348   c2.947,0,5.346-2.398,5.346-5.348C33.134,53.516,30.735,51.117,27.788,51.117z M27.788,58.84c-1.311,0-2.376-1.066-2.376-2.377   c0-1.309,1.065-2.375,2.376-2.375c1.31,0,2.375,1.066,2.375,2.375C30.163,57.773,29.098,58.84,27.788,58.84z"/><path fill="#000000" d="M72.2,52.082c-2.682,0-4.863,2.182-4.863,4.863s2.182,4.865,4.863,4.865s4.863-2.184,4.863-4.865   S74.882,52.082,72.2,52.082z M72.2,58.84c-1.045,0-1.893-0.85-1.893-1.895c0-1.043,0.848-1.893,1.893-1.893   c1.043,0,1.893,0.85,1.893,1.893C74.093,57.99,73.243,58.84,72.2,58.84z"/><rect x="34.552" y="58.066" fill="#000000" width="30.5" height="2.971"/><polygon fill="#000000" points="85.179,49.31 83.772,47.905 81.085,46.62 62.884,44.895 53.556,38.19 45.712,38.19 35.749,39.885    24.131,45.254 21.359,44.368 13.852,44.368 13.852,46.786 16.161,50.25 13.852,51.814 13.852,57.086 15.927,59.16 18.027,57.061    16.821,55.855 16.821,53.391 20.269,51.057 17.789,47.338 20.896,47.338 24.327,48.436 36.637,42.747 45.963,41.161 52.599,41.161    61.804,47.776 80.28,49.526 82.032,50.365 82.558,50.889 83.13,52.746 82.913,54.691 81.185,57.287 83.655,58.936 85.786,55.738    86.149,52.459  "/></g><text x="0" y="115" fill="#000000" font-size="5px" font-weight="bold" font-family="'Helvetica Neue', Helvetica, Arial-Unicode, Arial, Sans-serif">Created by Andrea Severgnini</text><text x="0" y="120" fill="#000000" font-size="5px" font-weight="bold" font-family="'Helvetica Neue', Helvetica, Arial-Unicode, Arial, Sans-serif">from the Noun Project</text></svg>